#tb 0: 32767/982027
0,          0,          0,        1,    18816, 0xc3fe9fc7
0,          1,          1,        1,    18816, 0x6ddf972f
0,          2,          2,        1,    18816, 0x72808b6e
0,          3,          3,        1,    18816, 0x8f09857f
0,          4,          4,        1,    18816, 0xe8027c00
0,          5,          5,        1,    18816, 0x308670cf
0,          6,          6,        1,    18816, 0x0e656170
0,          7,          7,        1,    18816, 0x594e54a4
0,          8,          8,        1,    18816, 0x36944b05
0,          9,          9,        1,    18816, 0x87013a34
0,         10,         10,        1,    18816, 0xc0f32f0d
0,         11,         11,        1,    18816, 0x911f1951
0,         12,         12,        1,    18816, 0xad590d59
0,         13,         13,        1,    18816, 0x943afff0
0,         14,         14,        1,    18816, 0x7f5ef719
0,         15,         15,        1,    18816, 0x889feafc
0,         16,         16,        1,    18816, 0x4334e12b
0,         17,         17,        1,    18816, 0xd080cc67
0,         18,         18,        1,    18816, 0xc3c1c04c
0,         19,         19,        1,    18816, 0x816bae4b
0,         20,         20,        1,    18816, 0xed23a5c7
0,         21,         21,        1,    18816, 0x86689c2f
0,         22,         22,        1,    18816, 0x63408c52
0,         23,         23,        1,    18816, 0x399c79d6
0,         24,         24,        1,    18816, 0xf0ff63bf
0,         25,         25,        1,    18816, 0xa6185353
0,         26,         26,        1,    18816, 0xe33d46fc
0,         27,         27,        1,    18816, 0xd58d3c6d
0,         28,         28,        1,    18816, 0xc94a27ea
0,         29,         29,        1,    18816, 0x62f31c59
0,         30,         30,        1,    18816, 0x71880825
0,         31,         31,        1,    18816, 0xa6ce01d7
0,         32,         32,        1,    18816, 0xa1d4fc06
0,         33,         33,        1,    18816, 0xc208f570
0,         34,         34,        1,    18816, 0xc862e637
0,         35,         35,        1,    18816, 0xcf9ed93a
0,         36,         36,        1,    18816, 0x85a8cbcc
0,         37,         37,        1,    18816, 0x650ac6c1
0,         38,         38,        1,    18816, 0xb418c12b
0,         39,         39,        1,    18816, 0x9fe5b412
0,         40,         40,        1,    18816, 0x80f6a7c1
0,         41,         41,        1,    18816, 0x283299e4
0,         42,         42,        1,    18816, 0x15429202
0,         43,         43,        1,    18816, 0x9f0f8c8a
0,         44,         44,        1,    18816, 0x8e828811
0,         45,         45,        1,    18816, 0xaac67993
0,         46,         46,        1,    18816, 0x8f3b6f4f
0,         47,         47,        1,    18816, 0x0b125f95
0,         48,         48,        1,    18816, 0xb4e75d14
0,         49,         49,        1,    18816, 0x1bac5933
0,         50,         50,        1,    18816, 0x300b521b
0,         51,         51,        1,    18816, 0x51174590
0,         52,         52,        1,    18816, 0x03df3d70
0,         53,         53,        1,    18816, 0x338a344a
0,         54,         54,        1,    18816, 0x45ad328d
0,         55,         55,        1,    18816, 0x2d4e321a
0,         56,         56,        1,    18816, 0x15932563
0,         57,         57,        1,    18816, 0x9b4f1c76
0,         58,         58,        1,    18816, 0x8e31153c
0,         59,         59,        1,    18816, 0xfb391185
0,         60,         60,        1,    18816, 0x93ee0cdc
0,         61,         61,        1,    18816, 0xddeb0642
0,         62,         62,        1,    18816, 0xda6cf529
0,         63,         63,        1,    18816, 0xdbd6f085
0,         64,         64,        1,    18816, 0x357aec81
0,         65,         65,        1,    18816, 0x36eaecca
0,         66,         66,        1,    18816, 0x6535ee02
0,         67,         67,        1,    18816, 0xb7dfe466
0,         68,         68,        1,    18816, 0x58d3d86b
0,         69,         69,        1,    18816, 0xd8aad64b
0,         70,         70,        1,    18816, 0x37ecd588
0,         71,         71,        1,    18816, 0xe2f9cee4
0,         72,         72,        1,    18816, 0xcd1ac93e
0,         73,         73,        1,    18816, 0x18e1be81
0,         74,         74,        1,    18816, 0xa05bb9d7
0,         75,         75,        1,    18816, 0xe0ebb663
0,         76,         76,        1,    18816, 0x7d61b39a
0,         77,         77,        1,    18816, 0x01b8acb5
0,         78,         78,        1,    18816, 0x7577aa8b
0,         79,         79,        1,    18816, 0x6bbda4b5
0,         80,         80,        1,    18816, 0xd0cc9b29
0,         81,         81,        1,    18816, 0xb2858cbb
0,         82,         82,        1,    18816, 0x93608c9d
0,         83,         83,        1,    18816, 0x80c38e03
0,         84,         84,        1,    18816, 0x37d6843c
0,         85,         85,        1,    18816, 0xacc47b9a
0,         86,         86,        1,    18816, 0xc4317178
0,         87,         87,        1,    18816, 0xc92f6ebd
0,         88,         88,        1,    18816, 0xc1217a3b
0,         89,         89,        1,    18816, 0x03a37ccb
0,         90,         90,        1,    18816, 0xf38c71a2
0,         91,         91,        1,    18816, 0x68ff697d
0,         92,         92,        1,    18816, 0x0fe358e5
0,         93,         93,        1,    18816, 0x58455870
0,         94,         94,        1,    18816, 0xc9075ce7
0,         95,         95,        1,    18816, 0x16685773
0,         96,         96,        1,    18816, 0x1b434c0e
0,         97,         97,        1,    18816, 0x008e4c97
0,         98,         98,        1,    18816, 0xb4d04f4f
0,         99,         99,        1,    18816, 0xc8c94848
0,        100,        100,        1,    18816, 0x64664191
0,        101,        101,        1,    18816, 0xd591367f
0,        102,        102,        1,    18816, 0xc70d3141
0,        103,        103,        1,    18816, 0x8d492655
0,        104,        104,        1,    18816, 0x7e7f22c8
0,        105,        105,        1,    18816, 0x335d23f9
0,        106,        106,        1,    18816, 0x0a7f22b6
0,        107,        107,        1,    18816, 0x6cf51cb2
0,        108,        108,        1,    18816, 0x312516e1
0,        109,        109,        1,    18816, 0x8a3c0c7a
0,        110,        110,        1,    18816, 0x997d0d20
0,        111,        111,        1,    18816, 0xffbd117e
0,        112,        112,        1,    18816, 0x855808ca
0,        113,        113,        1,    18816, 0xe335fb94
0,        114,        114,        1,    18816, 0x12e6f95c
0,        115,        115,        1,    18816, 0x2d62f845
0,        116,        116,        1,    18816, 0x7e63f591
0,        117,        117,        1,    18816, 0x7463f175
0,        118,        118,        1,    18816, 0x1521e0d2
0,        119,        119,        1,    18816, 0x96a8dbce
